HIERARCHY
ROOT Hips
{
  OFFSET 0.0 0.0 0.0
  CHANNELS 6 XPOSITION YPOSITION ZPOSITION ZROTATION XROTATION YROTATION 
  JOINT LeftUpLeg
  {
    OFFSET 0.089458 -0.0866707 0.00101652
    CHANNELS 3 ZROTATION XROTATION YROTATION 
    JOINT LeftLeg
    {
      OFFSET 0.0 -0.444227 0.013727
      CHANNELS 3 ZROTATION XROTATION YROTATION 
      JOINT LeftFoot
      {
        OFFSET -0.00253549 -0.420924 -0.0146059
        CHANNELS 3 ZROTATION XROTATION YROTATION 
        End Site
        {
          OFFSET -0.0004 -0.0441509 0.084991
        }
      }
    }
  }
  JOINT Spine
  {
    OFFSET 0.0 0.118905 0.0
    CHANNELS 3 ZROTATION XROTATION YROTATION 
    JOINT Spine1
    {
      OFFSET 0.0 0.256574 0.00127663
      CHANNELS 3 ZROTATION XROTATION YROTATION 
      End Site
      {
        OFFSET -0.0029 0.2150836 0.02525291
      }
      JOINT RightArm
      {
        OFFSET -0.162727 -0.05365632 0.00102123
        CHANNELS 3 ZROTATION XROTATION YROTATION 
        JOINT RightForeArm
        {
          OFFSET -0.26364 0.00099144 -0.0142434
          CHANNELS 3 ZROTATION XROTATION YROTATION 
          End Site
          {
            OFFSET -0.220324 0.00085362 0.0102216
          }
        }
      }
      JOINT LeftArm
      {
        OFFSET 0.162727 -0.0536563199 0.00102123
        CHANNELS 3 ZROTATION XROTATION YROTATION 
        JOINT LeftForeArm
        {
          OFFSET 0.262597 0.00099144 -0.0142434
          CHANNELS 3 ZROTATION XROTATION YROTATION 
          End Site
          {
            OFFSET 0.220902 0.00085362 0.0102216
          }
        }
      }
    }
  }
  JOINT RightUpLeg
  {
    OFFSET -0.089458 -0.0866707 0.00101652
    CHANNELS 3 ZROTATION XROTATION YROTATION 
    JOINT RightLeg
    {
      OFFSET 0.0 -0.444227 0.013727
      CHANNELS 3 ZROTATION XROTATION YROTATION 
      JOINT RightFoot
      {
        OFFSET 0.00253549 -0.420924 -0.0146059
        CHANNELS 3 ZROTATION XROTATION YROTATION 
        End Site
        {
          OFFSET 0.0004 -0.0441509 0.084991
        }
      }
    }
  }
}
MOTION
Frames: 13
Frame Time: 0.033333
-21.2868121 1.01869401798 -0.9417771 -11.2419791097 2.22323660668 -93.551741854 -2.01809721104 7.09552878578 4.93679712595 0.0924854170964 19.1725441984 20.2217978587 -2.03755343178 -15.9318482485 -0.108337278974 -8.18919020162 15.1995853751 -5.6506983164 9.78457895777 0.31222352833 -8.538142005 44.8904074519 -22.9959918882 -43.6036407934 9.36237593686 37.6356673835 -0.00111124611889 -57.0178796063 -28.8831590376 -95.366325041 -10.4503977509 41.0623254787 -0.975191357806 -0.947500383529 -44.3037420135 -3.49055088642 -3.78519137339 76.8325794074 -12.3600076523 13.7576308423 -11.9286419326 0.783386145616 
-21.3048871 1.01797971798 -0.9433516 -10.9221222046 1.97843024711 -92.5454227628 -1.99750653857 8.16050169956 4.87833326797 0.145144027823 18.8819947813 19.6217384193 -2.65547659057 -16.6197439206 -0.184394777105 -8.30249706354 15.0570359121 -5.36993058396 10.7236924026 -0.10377917491 -8.31168196042 49.9013040195 -25.1995270276 -35.5762116695 9.66378962361 39.521472368 -0.590444240538 -58.2205802965 -26.9504016251 -93.2689310412 -11.8771841411 42.3859785738 0.132160758685 -1.68120165205 -42.0141225849 -4.51303767569 -2.32321286033 68.3273614755 -13.3718113853 14.0669094919 -11.9906515125 0.813859087959 
-21.3236881 1.01692541798 -0.945913 -10.7606736081 1.41042627292 -91.4129842286 -2.2061387222 9.60209167107 4.74934130352 0.129659241922 18.1900061183 19.0588676524 -2.94065769243 -17.2143323784 -0.227944383419 -8.88713564328 14.9174422134 -4.87940859588 11.994840126 -0.618905372005 -7.98755533336 54.910752587 -27.773707505 -26.2055216848 10.3323865962 41.7389649991 -2.74115768517 -60.6872553039 -24.4756652869 -90.4578778959 -13.1414103216 43.7482154076 0.828221214875 -2.46269642223 -38.4183490057 -5.04722677068 -1.67994180231 58.9684928408 -13.9728279049 13.886591644 -11.6560576205 0.762394519698 
-21.3449721 1.01437111798 -0.9496196 -10.5954240113 0.705001080432 -90.2907636574 -2.38120308737 11.0255466366 4.7762765814 0.0855190310195 17.9545199788 18.1909657599 -3.96729616949 -18.5625587866 -0.394488994737 -9.48616372406 14.6483395903 -4.16043940507 13.0537602115 -1.55612498681 -7.33667843282 60.330780901 -30.4921159645 -15.6899673443 11.6472270397 44.626294282 -6.41596167563 -63.6059795514 -21.2228525815 -86.0736477695 -13.7250662079 44.8680590729 0.219005800229 -3.09764937706 -34.2789299347 -5.12651800986 -1.382707551 50.0204805752 -14.7872502701 13.0284185022 -10.8313822877 0.61009218682 
-21.3697227 1.00920481798 -0.9543764 -10.3913524731 -0.0289255776606 -89.42322718 -2.52693520515 12.1538119252 5.05881845547 0.0606108185502 18.8197871258 17.2505272584 -5.6688175276 -20.3350355649 -0.699727747506 -9.69750002226 13.7104718012 -3.31848326674 13.1082275551 -2.0932459405 -6.34495118703 67.1010488214 -32.3439988146 -3.63333535069 13.7309376092 48.1295734394 -10.5317589643 -65.0266930497 -17.1477465717 -79.6115101731 -13.2951510496 45.0471432179 -1.89835097485 -3.57681041266 -29.9006215824 -4.99410497441 -1.24989558981 42.5565966993 -15.8889990568 12.5127289745 -10.6544026948 0.559217522787 
-21.3966387 1.00320751798 -0.9599186 -10.4074204931 -0.745938032666 -88.4174749945 -2.60159429542 13.5453058742 5.32931870604 0.243120690228 19.8484170299 16.4458046156 -6.51539556956 -21.5737193992 -0.894902217308 -9.16933856922 11.8737733154 -2.7472521349 12.0579015551 -0.97291551743 -5.52338060206 75.1519089093 -32.0902333812 10.3292984969 16.1377767444 52.2997727579 -13.5106418104 -65.3086432586 -12.3923050555 -71.9384961501 -12.4928667844 45.3627628443 -3.98939866165 -4.09167049919 -24.4858029952 -5.9834702554 -1.19410126858 35.7847031939 -16.6568250176 12.8216276949 -11.100752142 0.624648333798 
-21.4246867 0.998827217983 -0.9660302 -10.7256082707 -0.832282669472 -86.8187667665 -1.92451892366 15.3838604639 4.87659114285 0.761415668212 20.6606033619 15.7369931968 -7.07913974686 -22.634924183 -1.05789769158 -7.15501119571 9.67484428479 -2.60525058106 10.3925281194 1.39208529401 -4.98777851169 82.7132903205 -29.7098714744 25.5203871167 18.2859241724 57.433414655 -15.0171885885 -67.0636740263 -7.86989166453 -63.7495364674 -12.4628728625 47.881907365 -4.29231627068 -3.93242378491 -18.040894551 -8.81260461906 -1.01581113313 28.8004659373 -16.3688283837 11.808793457 -9.94478189852 0.452222716161 
-21.4531518 0.995578917983 -0.9724532 -11.0486258458 0.401478599455 -85.3637862091 0.29358050031 15.9841572523 3.05850556292 1.11305648505 24.0433655389 15.8604130075 -10.1723766083 -23.9310277101 -1.69531858585 -2.7170259865 8.05854917337 -2.42250417406 7.99598464057 3.07430421736 -3.99252432697 88.2293989056 -26.301337286 40.8664254081 20.8575638194 62.5624564198 -17.2175084164 -70.7076414202 -4.5067295691 -54.2641419934 -13.7784612117 51.8317067242 -2.68344920343 -2.19016397694 -13.0602864573 -10.5663794856 -0.0356141771426 23.7970381816 -16.6068126649 7.53613617828 -6.46666046229 0.00839457262926 
-21.4784248 0.991702917983 -0.977843 -10.5781999818 2.80223985347 -86.6902021157 3.21347017547 12.0519003801 2.53421981535 1.06249995842 34.4847986665 17.070399802 -15.8224525237 -21.9791064944 -2.42778412374 5.29880014017 7.97576984195 -1.45246000413 3.00080006939 2.56667004409 -1.26255000935 89.9988823535 -21.757420752 56.1531127706 21.0661014476 62.3302982899 -17.2702016183 -71.713516549 -1.71454844985 -41.9608744301 -16.2019002679 54.584498356 -0.208080992693 1.2592599926 -12.6629999665 -7.30174969918 1.20582998405 23.8410006942 -18.6590010577 2.09811245028 -3.79956507961 -0.178653576221 
-21.4999878 0.988095917983 -0.9838321 -9.91015027811 4.9302900901 -88.6004967435 6.34785999385 4.46848008286 3.5018401219 1.40599006506 49.5808008078 17.4849991148 -17.2721277316 -13.6621669958 -1.48466477295 13.0423998994 9.49368973875 -0.592461974469 -2.58570001834 1.48994995199 1.50284993817 88.8515744974 -18.0442123154 68.4897150721 19.1206996475 58.503199864 -15.5791014213 -73.484085997 -3.2071680453 -29.6963579451 -21.2069997125 57.3254020435 5.92853034815 4.8101696876 -13.748900153 -4.88401000895 0.759474987353 26.2247998938 -18.6112990165 -0.66615389928 -4.10207458484 -0.177637945768 
-21.5190998 0.983096917983 -0.9899121 -9.87622045963 6.39339985325 -88.3470011027 8.84072963051 -4.87750980329 2.62992997552 2.07539993686 65.6049027139 17.0708010756 -13.9480402947 -2.61987721773 0.138325111133 18.4268992769 11.8980998879 -0.804230015333 -6.31062009494 0.762012989599 2.9901298198 85.6833912509 -16.0286508121 79.3496133996 16.467299221 53.3049990188 -13.6309999889 -74.1581710266 -8.64223921059 -17.8580042831 -27.6571998457 59.4796027266 14.6155000407 6.7179900794 -13.925000359 -4.59626011563 0.721064991669 28.9098001905 -19.0984998251 -0.26094612326 -6.8837186432 -0.195262621931 
-21.5392208 0.980328917983 -0.9954032 -10.0471997314 6.99947967746 -86.9175996038 9.58174026866 -13.9558002433 0.442560986693 4.34930011204 79.0997992307 13.2697000572 -10.7083415524 3.34837729719 0.661109591135 21.7642987525 13.7090997869 -1.34675002012 -8.38510051759 0.193793997857 3.68376989441 81.4506957015 -16.2935545764 88.4837278295 14.4927991074 49.7168001195 -12.254000555 -71.5700620859 -11.5791283461 -5.52789578399 -30.0249002894 60.3175030132 18.2259995077 7.19767981434 -13.0056005477 -5.2434397494 1.70892997892 30.2561021929 -20.2623008804 0.70763742673 -9.32471342001 -0.173974669856 
-21.5624668 0.983977917983 -1.0007195 -9.68974007359 6.90667021324 -86.8717007325 9.10106058318 -21.7693001585 -0.36154200313 55.379300149 89.0465968888 -39.9803996085 -9.74335193594 2.66627383898 0.529046282707 23.3214008833 14.77379992 -0.921318987779 -10.3513002438 -1.00981999001 4.72783004961 77.6072867838 -18.4759724785 95.9493158376 13.2620007265 48.2027008597 -11.0340997409 -67.9067994076 -8.90906567316 7.46996957447 -27.1298989965 60.6297997526 14.1646990178 7.15629014863 -11.5779996574 -5.01550011509 2.57297985822 29.826302294 -20.6244989819 0.755297632985 -10.323813855 -0.170003848669 
